<svg width="40" height="52" viewBox="0 0 40 52" fill="none" xmlns="http://www.w3.org/2000/svg">
<path d="M16.977 2.93452H17.1136C17.3666 2.93452 17.6398 2.95995 17.9105 2.98284C19.1031 3.06695 20.2873 3.24551 21.4521 3.51685V0.653528C20.2528 0.352628 19.0297 0.157776 17.7966 0.0712015C17.3286 0.0356008 16.8303 0.0127146 16.3193 0H15.8917C13.4168 0.00930695 10.9526 0.327052 8.55554 0.945963C5.8253 1.62687 3.20466 2.69275 0.771576 4.11189V32.5086C3.1143 31.2357 5.60713 30.2643 8.19126 29.6173C10.2316 29.0967 12.3175 28.7765 14.4194 28.6612H14.5029C14.8546 28.6434 15.2062 28.6332 15.5679 28.6306V25.7216C12.8367 25.7567 10.1193 26.1178 7.47282 26.7972C6.49381 27.0515 5.5477 27.3261 4.65976 27.6313L3.64787 27.9746V5.83344L4.08046 5.62492C7.38168 4.05951 10.9522 3.14863 14.5965 2.94215C14.6268 2.93994 14.6573 2.93994 14.6876 2.94215C15.0898 2.92181 15.4946 2.91163 15.8917 2.91163H16.3269H16.3471C16.5571 2.91672 16.767 2.92181 16.977 2.93452Z" fill="#AFB1B8"/>
<path d="M24.1108 5.93234C23.4455 5.93234 22.7878 5.90946 22.1528 5.86114C21.3939 5.8052 20.6147 5.71365 19.8761 5.58905C19.4258 5.51276 18.9831 5.42122 18.553 5.32204V33.3932C20.3737 33.844 22.2433 34.0644 24.1184 34.0493C26.5931 34.0393 29.0571 33.7224 31.4546 33.1059C34.1853 32.4241 36.8067 31.3583 39.2411 29.94V2.04932C36.8986 3.32153 34.4069 4.29372 31.8239 4.94315C29.3032 5.59059 26.7125 5.92283 24.1108 5.93234ZM35.3352 6.41804L36.3471 6.07729V28.226L35.9145 28.4346C34.2552 29.224 32.5224 29.8467 30.7412 30.2934C28.5782 30.8531 26.3545 31.1409 24.1209 31.1504C23.4531 31.1504 22.7903 31.1224 22.1477 31.0665L21.4546 31.0054V28.3176V8.22859L22.2616 8.28199C22.8485 8.32014 23.4556 8.33794 24.1159 8.33794C26.9514 8.32785 29.7749 7.96571 32.5221 7.25974C33.4657 7.01054 34.4043 6.73082 35.3352 6.41804Z" fill="#AFB1B8"/>
<path d="M2.73716 42.2125C2.59169 42.0616 2.41632 41.9431 2.22239 41.8647C2.02847 41.7863 1.82032 41.7497 1.61144 41.7573C1.38882 41.7544 1.16784 41.7959 0.961298 41.8794C0.771932 41.9548 0.599797 42.0681 0.455353 42.2125C0.312481 42.3573 0.201322 42.5305 0.129018 42.7211C0.0497097 42.9208 0.010173 43.1342 0.012651 43.3492V47.1432C0.00360335 47.4106 0.0546187 47.6765 0.161905 47.9213C0.251463 48.1158 0.380755 48.2891 0.541363 48.4299C0.692984 48.5576 0.871009 48.6497 1.06249 48.6995C1.24697 48.7513 1.43759 48.7779 1.62914 48.7783C1.84044 48.7804 2.04956 48.7353 2.24134 48.6461C2.43098 48.5631 2.6028 48.4439 2.74728 48.2952C2.88817 48.1478 3.00055 47.9753 3.07868 47.7866C3.15976 47.5953 3.20108 47.3893 3.2001 47.1814V46.7567H2.20845V47.0949C2.2114 47.2104 2.19163 47.3253 2.15027 47.4331C2.11797 47.5139 2.0688 47.5867 2.00607 47.6467C1.94464 47.6963 1.87419 47.7335 1.79864 47.7561C1.73167 47.7784 1.66173 47.7904 1.5912 47.7917C1.50266 47.802 1.41299 47.7886 1.33125 47.7529C1.24951 47.7171 1.17861 47.6603 1.12573 47.5882C1.03225 47.4357 0.986426 47.2586 0.994184 47.0796V43.5424C0.988032 43.3463 1.02972 43.1516 1.11561 42.9754C1.16709 42.8953 1.23993 42.8314 1.32581 42.7909C1.41169 42.7505 1.50716 42.7351 1.60132 42.7465C1.68679 42.7435 1.77173 42.7613 1.84884 42.7985C1.92594 42.8357 1.99292 42.8912 2.04402 42.9601C2.15499 43.1058 2.21301 43.2853 2.20845 43.4687V43.7967H3.18998V43.4102C3.19198 43.1832 3.15076 42.9579 3.06856 42.7465C2.9953 42.5477 2.88254 42.3661 2.73716 42.2125Z" fill="#AFB1B8"/>
<path d="M8.62889 42.169C8.31268 41.902 7.91359 41.7545 7.50063 41.752C7.29865 41.7528 7.09835 41.7889 6.90867 41.8588C6.7161 41.9278 6.53838 42.0331 6.38502 42.169C6.22073 42.3167 6.08965 42.4978 6.0005 42.7005C5.9006 42.9322 5.85143 43.1828 5.85631 43.4354V47.0743C5.84947 47.3302 5.8987 47.5846 6.0005 47.8193C6.09025 48.015 6.22149 48.1886 6.38502 48.3279C6.53662 48.4687 6.71465 48.5776 6.90867 48.6483C7.09835 48.7181 7.29865 48.7543 7.50063 48.7551C7.70266 48.7547 7.90304 48.7186 8.09259 48.6483C8.28992 48.5766 8.47192 48.4679 8.62889 48.3279C8.78707 48.186 8.91451 48.0129 9.00329 47.8193C9.10509 47.5846 9.15432 47.3302 9.14748 47.0743V43.4354C9.15236 43.1828 9.10319 42.9322 9.00329 42.7005C8.91502 42.5 8.78772 42.3193 8.62889 42.169ZM8.16595 47.0743C8.1743 47.1713 8.16092 47.2689 8.12677 47.36C8.09262 47.4511 8.03858 47.5333 7.96863 47.6007C7.83765 47.7105 7.67248 47.7707 7.5019 47.7707C7.33131 47.7707 7.16614 47.7105 7.03516 47.6007C6.96521 47.5333 6.91117 47.4511 6.87702 47.36C6.84287 47.2689 6.82948 47.1713 6.83784 47.0743V43.4354C6.82948 43.3384 6.84287 43.2407 6.87702 43.1496C6.91117 43.0585 6.96521 42.9763 7.03516 42.909C7.16614 42.7991 7.33131 42.739 7.5019 42.739C7.67248 42.739 7.83765 42.7991 7.96863 42.909C8.03858 42.9763 8.09262 43.0585 8.12677 43.1496C8.16092 43.2407 8.1743 43.3384 8.16595 43.4354V47.0743Z" fill="#AFB1B8"/>
<path d="M16.3673 48.6993V41.8105H15.4136L14.1614 45.4571H14.1437L12.8814 41.8105H11.9378V48.6993H12.9218V44.5086H12.9395L13.9034 47.4711H14.3941L15.3656 44.5086H15.3833V48.6993H16.3673Z" fill="#AFB1B8"/>
<path d="M21.958 42.2935C21.8065 42.1236 21.6152 41.9942 21.4015 41.9172C21.1712 41.8423 20.9301 41.8062 20.6881 41.8104H19.2259V48.6991H20.2074V46.0087H20.7134C21.0196 46.0227 21.3243 45.9579 21.5988 45.8206C21.8219 45.6967 22.008 45.5149 22.1376 45.2942C22.2512 45.111 22.3277 44.907 22.3628 44.6941C22.4014 44.4348 22.4192 44.1729 22.4159 43.9108C22.4254 43.58 22.3931 43.2494 22.3197 42.9267C22.2543 42.6884 22.1298 42.4705 21.958 42.2935ZM21.452 44.394C21.4478 44.5187 21.4167 44.641 21.361 44.7525C21.3049 44.8585 21.2161 44.9432 21.108 44.9941C20.9626 45.0591 20.804 45.0888 20.6451 45.0806H20.1973V42.7386H20.7032C20.8556 42.7311 21.0075 42.7607 21.146 42.825C21.2474 42.8832 21.328 42.9723 21.3762 43.0793C21.4298 43.2003 21.459 43.3308 21.4622 43.4633C21.4622 43.6082 21.4622 43.7608 21.4622 43.921C21.4622 44.0812 21.4723 44.2465 21.4622 44.394H21.452Z" fill="#AFB1B8"/>
<path d="M26.6076 41.8105H25.8032L24.2853 48.6993H25.2669L25.5553 47.2193H26.8935L27.1819 48.6993H28.1634L26.6076 41.8105ZM25.702 46.281L26.1852 43.7838H26.2029L26.6835 46.281H25.702Z" fill="#AFB1B8"/>
<path d="M32.9497 45.9606H32.932L31.4495 41.8105H30.506V48.6993H31.4875V44.5569H31.5077L33.0078 48.6993H33.9312V41.8105H32.9497V45.9606Z" fill="#AFB1B8"/>
<path d="M38.9476 41.8105L38.1584 44.5493H38.1381L37.3489 41.8105H36.3091L37.6575 45.7877V48.6993H38.639V45.7877L39.9874 41.8105H38.9476Z" fill="#AFB1B8"/>
<path d="M0 50.6447H0.473058V51.972H0.794333V50.6447H1.26486V50.3726H0V50.6447Z" fill="#AFB1B8"/>
<path d="M3.97672 50.3726L3.35693 51.972H3.69845L3.82999 51.6084H4.46748L4.60409 51.972H4.95319L4.31823 50.3726H3.97672ZM3.92612 51.3389L4.14368 50.7464L4.36123 51.3389H3.92612Z" fill="#AFB1B8"/>
<path d="M7.90793 51.3821H8.27727V51.5881C8.16941 51.6746 8.03576 51.722 7.89781 51.7229C7.8333 51.7265 7.76886 51.7145 7.70988 51.688C7.65091 51.6614 7.59911 51.6211 7.55883 51.5703C7.47402 51.4485 7.43217 51.3017 7.43993 51.1533C7.43993 50.7973 7.59424 50.6193 7.90034 50.6193C7.98091 50.6112 8.06168 50.6325 8.12804 50.6791C8.19439 50.7257 8.24194 50.7947 8.26209 50.8735L8.57831 50.8125C8.51001 50.4997 8.28486 50.3421 7.90034 50.3421C7.69468 50.3366 7.4947 50.4103 7.34127 50.5481C7.26069 50.6276 7.19834 50.7239 7.15858 50.8302C7.11882 50.9365 7.10261 51.0502 7.11107 51.1634C7.10175 51.3823 7.17493 51.5966 7.31598 51.7636C7.39434 51.8444 7.4892 51.9071 7.59401 51.9475C7.69883 51.9879 7.8111 52.0049 7.92311 51.9975C8.17338 52.0045 8.41652 51.9133 8.60108 51.7432V51.1126H7.90793V51.3821Z" fill="#AFB1B8"/>
<path d="M11.9226 50.3726H11.5988V51.972H12.7195V51.7H11.9226V50.3726Z" fill="#AFB1B8"/>
<path d="M15.3175 50.3726H14.9937V51.972H15.3175V50.3726Z" fill="#AFB1B8"/>
<path d="M18.6365 51.4406L17.9813 50.3726H17.6676V51.972H17.9686V50.9269L18.6112 51.972H18.9325V50.3726H18.6365V51.4406Z" fill="#AFB1B8"/>
<path d="M21.6367 51.2677H22.4336V50.9956H21.6367V50.6447H22.4943V50.3726H21.3129V51.972H22.5272V51.7H21.6367V51.2677Z" fill="#AFB1B8"/>
<path d="M28.9122 51.0032H28.2823V50.3726H27.961V51.972H28.2823V51.2728H28.9122V51.972H29.2335V50.3726H28.9122V51.0032Z" fill="#AFB1B8"/>
<path d="M31.9302 51.2677H32.7296V50.9956H31.9302V50.6447H32.7903V50.3726H31.6089V51.972H32.8207V51.7H31.9302V51.2677Z" fill="#AFB1B8"/>
<path d="M36.0233 51.2679C36.3016 51.2246 36.4432 51.0771 36.4432 50.8228C36.4513 50.7548 36.441 50.6859 36.4134 50.6232C36.3858 50.5606 36.3419 50.5065 36.2864 50.4668C36.1415 50.3941 35.9799 50.3616 35.8184 50.3727H35.1404V51.9722H35.4617V51.3035H35.5249C35.5934 51.2992 35.6619 51.3114 35.7248 51.3391C35.7717 51.368 35.8108 51.4082 35.8386 51.456L36.1877 51.9646H36.5722L36.3774 51.6518C36.2913 51.4974 36.17 51.3658 36.0233 51.2679ZM35.6995 51.0466H35.4617V50.6448H35.7147C35.8249 50.6359 35.9358 50.6489 36.041 50.683C36.0644 50.7036 36.0828 50.7293 36.095 50.7581C36.1072 50.7869 36.1127 50.8181 36.1113 50.8494C36.1098 50.8807 36.1014 50.9112 36.0866 50.9387C36.0718 50.9663 36.051 50.9901 36.0258 51.0085C35.9202 51.0409 35.8097 51.0538 35.6995 51.0466Z" fill="#AFB1B8"/>
<path d="M39.1095 51.2677H39.9064V50.9956H39.1095V50.6447H39.9696V50.3726H38.7857V51.972H40V51.7H39.1095V51.2677Z" fill="#AFB1B8"/>
</svg>
