<svg width="89" height="46" viewBox="0 0 89 46" fill="none" xmlns="http://www.w3.org/2000/svg">
<path d="M44.7405 21.3533C44.3226 20.7432 44.1226 20.022 44.1701 19.2962V16.3135C44.1701 15.3992 44.3592 14.7044 44.7373 14.2291C45.1155 13.7537 45.7651 13.517 46.686 13.5191C47.5513 13.5191 48.1656 13.7213 48.5288 14.1259C48.925 14.6421 49.1178 15.2733 49.0736 15.91V16.6109H47.5256V15.9009C47.5311 15.6685 47.5161 15.4361 47.4808 15.2061C47.4585 15.0488 47.3806 14.9033 47.2596 14.7934C47.1007 14.675 46.9004 14.6175 46.6988 14.6326C46.4867 14.6176 46.2764 14.6782 46.1091 14.8025C45.9742 14.9243 45.8844 15.0838 45.8527 15.2576C45.8083 15.5011 45.7879 15.7479 45.7918 15.995V19.6147C45.7674 19.964 45.8357 20.3134 45.9905 20.6312C46.0675 20.7387 46.1744 20.824 46.2994 20.8775C46.4244 20.9311 46.5626 20.9508 46.6988 20.9346C46.8971 20.9501 47.0939 20.8912 47.2468 20.7708C47.373 20.6523 47.4541 20.4976 47.4776 20.3308C47.5137 20.0907 47.5298 19.8482 47.5256 19.6056V18.8714H49.0736V19.5419C49.1171 20.2056 48.929 20.8644 48.5384 21.4171C48.1827 21.86 47.5769 22.0815 46.686 22.0815C45.795 22.0815 45.1219 21.8449 44.7405 21.3533Z" fill="#AFB1B8"/>
<path d="M51.1857 21.3837C50.7947 20.9194 50.5992 20.2428 50.5992 19.3477V16.2104C50.5992 15.3244 50.7947 14.6538 51.1857 14.1987C51.5767 13.7436 52.2305 13.517 53.1471 13.5191C54.0573 13.5191 54.7079 13.7456 55.0989 14.1987C55.4899 14.6538 55.6886 15.3244 55.6886 16.2104V19.3477C55.6886 20.2337 55.4899 20.9134 55.0925 21.3806C54.6951 21.8479 54.0477 22.0815 53.1471 22.0815C52.2466 22.0815 51.5799 21.8449 51.1857 21.3837ZM53.8682 20.6312C54.0083 20.3404 54.072 20.0219 54.0541 19.7027V15.8615C54.0721 15.5485 54.0094 15.2361 53.8714 14.9512C53.7929 14.8414 53.6833 14.7547 53.5553 14.7011C53.4272 14.6474 53.2858 14.629 53.1471 14.6478C53.0081 14.6294 52.8664 14.6481 52.7379 14.7017C52.6094 14.7553 52.4992 14.8417 52.4196 14.9512C52.2787 15.2353 52.2148 15.5481 52.2337 15.8615V19.7209C52.2143 20.0402 52.2781 20.3591 52.4196 20.6494C52.5099 20.7473 52.6212 20.8257 52.7461 20.8795C52.8711 20.9332 53.0067 20.961 53.1439 20.961C53.2812 20.961 53.4168 20.9332 53.5417 20.8795C53.6666 20.8257 53.778 20.7473 53.8682 20.6494V20.6312Z" fill="#AFB1B8"/>
<path d="M57.5505 13.6104H59.2171L60.4702 19.3989L61.7522 13.6104H63.3739L63.5374 21.9656H62.3387L62.2105 16.1588L60.9734 21.9656H60.0119L58.7299 16.1375L58.6114 21.9656H57.3999L57.5505 13.6104Z" fill="#AFB1B8"/>
<path d="M65.4059 13.6104H68.0018C69.4974 13.6104 70.2452 14.4012 70.2452 15.9828C70.2452 17.4977 69.4579 18.2542 67.8832 18.2521H66.9987V21.9656H65.3962L65.4059 13.6104ZM67.6236 17.1812C67.782 17.2002 67.9428 17.1865 68.0949 17.1409C68.2471 17.0953 68.387 17.019 68.505 16.9172C68.6887 16.6351 68.7698 16.3036 68.7357 15.9737C68.7441 15.7188 68.7183 15.464 68.6588 15.2153C68.636 15.1322 68.5959 15.0542 68.5408 14.986C68.4858 14.9178 68.417 14.8606 68.3383 14.8178C68.1159 14.7168 67.87 14.6709 67.6236 14.6843H67.0019V17.1812H67.6236Z" fill="#AFB1B8"/>
<path d="M72.5561 13.6104H74.2771L76.043 21.9656H74.5495L74.2002 20.0391H72.665L72.3061 21.9656H70.7902L72.5561 13.6104ZM74.0271 19.0713L73.4278 15.5642L72.8285 19.0713H74.0271Z" fill="#AFB1B8"/>
<path d="M77.4691 13.6104H78.5909L80.7382 18.3765V13.6104H82.0682V21.9656H81.001L78.8409 16.9901V21.9656H77.4659L77.4691 13.6104Z" fill="#AFB1B8"/>
<path d="M85.1834 18.7799L83.3983 13.6221H84.9014L85.9911 16.9352L87.0134 13.6221H88.4845L86.7218 18.7799V21.9656H85.1834V18.7799Z" fill="#AFB1B8"/>
<path d="M47.2148 25.6191V26.056H45.9072V29.4512H45.3592V26.056H44.0452V25.6191H47.2148Z" fill="#AFB1B8"/>
<path d="M51.3138 29.4514H50.8908C50.8478 29.454 50.8054 29.441 50.7722 29.415C50.7402 29.3928 50.7157 29.3622 50.7017 29.327L50.3235 28.4169H48.5095L48.1313 29.327C48.1206 29.3651 48.1008 29.4004 48.0736 29.4302C48.0401 29.4556 47.9979 29.4685 47.955 29.4666H47.532L49.1345 25.6348H49.6921L51.3138 29.4514ZM48.6601 28.0285H50.1729L49.5319 26.4691C49.4846 26.3512 49.445 26.2306 49.4133 26.1081C49.3909 26.1809 49.3716 26.2507 49.3524 26.3113L49.2947 26.4721L48.6601 28.0285Z" fill="#AFB1B8"/>
<path d="M54.0765 29.0751C54.1769 29.0801 54.2774 29.0801 54.3778 29.0751C54.4644 29.0666 54.5502 29.0514 54.6342 29.0296C54.7127 29.0113 54.7898 28.988 54.8649 28.9598C54.9354 28.9325 55.0059 28.8991 55.0797 28.8657V28.004H54.4387C54.4228 28.0048 54.407 28.0026 54.3921 27.9973C54.3772 27.9921 54.3636 27.984 54.3521 27.9736C54.3416 27.965 54.3333 27.9543 54.3277 27.9422C54.3222 27.9301 54.3196 27.917 54.3201 27.9038V27.6095H55.5636V29.0781C55.4621 29.1469 55.3549 29.2077 55.2431 29.2602C55.1288 29.3136 55.0098 29.3572 54.8874 29.3907C54.7563 29.4272 54.6223 29.4535 54.4867 29.4695C54.3314 29.4859 54.1752 29.494 54.0188 29.4938C53.7424 29.496 53.4682 29.4476 53.2112 29.3512C52.9712 29.2599 52.7532 29.1236 52.5702 28.9507C52.3918 28.776 52.2513 28.5698 52.1568 28.3438C52.0557 28.0898 52.0057 27.8202 52.0093 27.5488C52.006 27.2757 52.0548 27.0043 52.1536 26.7477C52.2457 26.5207 52.3865 26.314 52.567 26.1409C52.7499 25.9685 52.968 25.8332 53.208 25.7434C53.4824 25.6456 53.7737 25.5973 54.0669 25.6008C54.2161 25.6006 54.3651 25.6117 54.5124 25.6341C54.6426 25.6542 54.7704 25.6868 54.8938 25.7312C55.0059 25.7711 55.1133 25.822 55.2143 25.883C55.3125 25.9428 55.4057 26.0098 55.4931 26.0832L55.3393 26.3199C55.3272 26.3415 55.3093 26.3597 55.2873 26.3725C55.2653 26.3853 55.2401 26.3923 55.2143 26.3927C55.1788 26.3916 55.1444 26.3811 55.1149 26.3624C55.0668 26.3381 55.0156 26.3078 54.9579 26.2714C54.8897 26.2309 54.8179 26.1964 54.7431 26.1682C54.6476 26.1319 54.549 26.1035 54.4483 26.0832C54.314 26.0598 54.1777 26.0486 54.0413 26.0498C53.8298 26.0476 53.6199 26.0837 53.4227 26.156C53.2444 26.2238 53.0836 26.3273 52.9516 26.4595C52.8188 26.5972 52.7173 26.7594 52.6535 26.9359C52.5103 27.3509 52.5103 27.7983 52.6535 28.2133C52.7237 28.3935 52.8328 28.5579 52.974 28.6958C53.1055 28.8273 53.265 28.9307 53.4419 28.9992C53.6457 29.0655 53.8617 29.0913 54.0765 29.0751Z" fill="#AFB1B8"/>
<path d="M59.1851 29.0143H60.9351V29.4512H58.6499V25.6191H59.198L59.1851 29.0143Z" fill="#AFB1B8"/>
<path d="M62.7555 29.4512H62.2074V25.6191H62.7555V29.4512Z" fill="#AFB1B8"/>
<path d="M64.7938 25.6369C64.8263 25.6545 64.8547 25.6782 64.8771 25.7067L67.2199 28.5953C67.2167 28.5498 67.2167 28.5042 67.2199 28.4587C67.2199 28.4163 67.2199 28.3738 67.2199 28.3343V25.6035H67.6974V29.4509H67.4218C67.3809 29.4541 67.34 29.4468 67.3032 29.4297C67.2699 29.4106 67.2406 29.3859 67.2167 29.3569L64.8771 26.4713C64.8771 26.5168 64.8771 26.5593 64.8771 26.6018C64.8771 26.6443 64.8771 26.6837 64.8771 26.7201V29.4509H64.4188V25.6187H64.7041C64.735 25.6187 64.7656 25.6249 64.7938 25.6369Z" fill="#AFB1B8"/>
<path d="M71.7324 25.6191V26.0409H69.7903V27.3061H71.3639V27.7127H69.7903V29.0204H71.7324V29.4421H69.2262V25.6191H71.7324Z" fill="#AFB1B8"/>
<path d="M14.3035 1.95391L38.6385 8.49527V31.4173L14.3035 24.879V1.95391ZM12.7427 0V25.9925L40.1961 33.3743V7.38482L12.7427 0Z" fill="#AFB1B8"/>
<path d="M27.4565 45.4402L0 38.0522V12.0625L27.4565 19.4474V45.4402Z" fill="#AFB1B8"/>
<path d="M13.1978 1.65958L37.2155 8.11891L27.0014 17.7912L2.98057 11.3288L13.1978 1.65958ZM12.7427 0L0 12.0631L27.4565 19.4478L40.196 7.38469L12.7427 0Z" fill="#AFB1B8"/>
<path d="M29.0013 43.978L40.196 33.3774L29.0013 30.3647V43.978Z" fill="#AFB1B8"/>
</svg>
