<svg width="59" height="47" viewBox="0 0 59 47" fill="none" xmlns="http://www.w3.org/2000/svg">
<path d="M4.48764 39.2777C4.71752 39.5633 4.83998 39.9211 4.83356 40.2883C4.84529 40.5278 4.8032 40.7669 4.71042 40.9879C4.61763 41.2089 4.47652 41.4061 4.29754 41.5649C3.85095 41.9036 3.29769 42.0691 2.73933 42.0311H0V35.6262H2.68323C3.21289 35.5908 3.73833 35.7412 4.16977 36.0517C4.34305 36.1973 4.48026 36.3814 4.57058 36.5893C4.6609 36.7973 4.70185 37.0235 4.69021 37.2501C4.70595 37.6034 4.59543 37.9508 4.37857 38.2295C4.17037 38.4839 3.88265 38.6604 3.56206 38.7301C3.92548 38.7967 4.25352 38.9907 4.48764 39.2777ZM1.27461 38.3108H2.42146C2.6821 38.3302 2.94097 38.2546 3.1507 38.098C3.23681 38.0197 3.3038 37.9225 3.34649 37.814C3.38918 37.7055 3.40643 37.5885 3.39689 37.4722C3.40499 37.3564 3.38738 37.2402 3.34535 37.1319C3.30332 37.0237 3.2379 36.9262 3.15381 36.8465C2.93781 36.6854 2.6709 36.6087 2.40276 36.6306H1.27461V38.3108ZM3.26289 40.767C3.35493 40.6868 3.42729 40.5864 3.47432 40.4735C3.52134 40.3606 3.54178 40.2383 3.53402 40.1162C3.54104 39.9927 3.51967 39.8692 3.47158 39.7552C3.42349 39.6413 3.34995 39.54 3.25666 39.4591C3.03228 39.2921 2.75632 39.2101 2.47755 39.2276H1.27461V40.9892H2.49313C2.7674 41.0051 3.03889 40.9267 3.26289 40.767Z" fill="#AFB1B8"/>
<path d="M9.97254 42.0314L8.47978 39.5283H7.91882V42.0314H6.63486V35.6265H9.06566C9.67838 35.5835 10.2841 35.7784 10.7579 36.1709C11.0977 36.5185 11.3026 36.9766 11.3358 37.4625C11.3689 37.9484 11.2281 38.4302 10.9386 38.8211C10.6387 39.1661 10.2291 39.3961 9.77932 39.4719L11.3687 42.0314H9.97254ZM7.91882 38.6553H8.96905C9.69829 38.6553 10.0629 38.332 10.0629 37.6853C10.0704 37.5532 10.0504 37.4211 10.0042 37.2972C9.95809 37.1733 9.88681 37.0604 9.7949 36.9656C9.56445 36.7732 9.26766 36.6799 8.96905 36.7059H7.90636L7.91882 38.6553Z" fill="#AFB1B8"/>
<path d="M16.9907 40.7421H14.4321L13.9803 42.0312H12.634L14.9838 35.6982H16.4391L18.7795 42.0312H17.4333L16.9907 40.7421ZM16.6479 39.7721L15.713 37.0687L14.7781 39.7721H16.6479Z" fill="#AFB1B8"/>
<path d="M25.7759 42.0309H24.5013L21.6435 37.6754V42.0309H20.372V35.626H21.6435L24.5013 40.0065V35.626H25.7759V42.0309Z" fill="#AFB1B8"/>
<path d="M33.0496 40.4981C32.7861 40.9817 32.3845 41.375 31.8965 41.6276C31.3417 41.909 30.7259 42.0477 30.1046 42.0313H27.8358V35.6263H30.1046C30.7249 35.61 31.3398 35.7453 31.8965 36.0206C32.3844 36.2674 32.7864 36.6569 33.0496 37.1376C33.3119 37.6585 33.4486 38.2341 33.4486 38.8178C33.4486 39.4016 33.3119 39.9772 33.0496 40.4981ZM31.5911 40.3448C31.9549 39.9193 32.1549 39.377 32.1549 38.8163C32.1549 38.2555 31.9549 37.7133 31.5911 37.2878C31.1514 36.9024 30.578 36.7067 29.9955 36.7433H29.1104V40.8892H29.9955C30.578 40.9258 31.1514 40.7302 31.5911 40.3448Z" fill="#AFB1B8"/>
<path d="M17.7885 0C17.7885 0 34.24 6.236 33.891 15.2599V30.5229C33.891 30.5229 17.4519 24.2838 17.7947 15.2599L17.7885 0Z" fill="#AFB1B8"/>
<path d="M48.5475 26.9495C51.6545 24.8027 55.2484 23.4729 59 23.0821V18.3042C54.6773 19.9769 51.0103 23.0099 48.5475 26.9495Z" fill="#AFB1B8"/>
<path d="M46.6808 28.3889C49.2239 23.2477 53.6325 19.2804 59 17.303V3.53564C59 3.53564 35.5708 12.4187 36.0663 25.2693V46.9999C36.0663 46.9999 37.1103 46.6025 38.7526 45.8578C38.7526 45.1632 38.7526 44.4623 38.8274 43.7583C39.3123 37.7925 42.1371 32.2641 46.6808 28.3889Z" fill="#AFB1B8"/>
<path d="M44.4526 36.4616C44.5756 34.9545 44.8502 33.4638 45.2722 32.0122C42.443 35.3588 40.7297 39.5116 40.3732 43.8866C40.3389 44.2996 40.3202 44.7126 40.3109 45.1382C41.6416 44.4967 43.1904 43.6957 44.8172 42.7539C44.402 40.684 44.2793 38.5658 44.4526 36.4616Z" fill="#AFB1B8"/>
<path d="M45.3844 36.5398C45.2284 38.4436 45.3259 40.3597 45.6742 42.2377C52.0753 38.3922 59.268 32.4503 58.9907 25.2693V24.6436C54.4173 25.1573 50.1385 27.1646 46.8117 30.357C46.0328 32.3354 45.5517 34.4192 45.3844 36.5398Z" fill="#AFB1B8"/>
</svg>
