<svg width="41" height="43" viewBox="0 0 41 43" fill="none" xmlns="http://www.w3.org/2000/svg">
<path d="M6.34547 41.7948C6.36049 41.7952 6.37527 41.7985 6.38896 41.8043C6.40265 41.8102 6.41497 41.8187 6.42521 41.8291L6.63098 42.0448C6.47126 42.2194 6.27385 42.359 6.05225 42.4541C5.79275 42.5579 5.51308 42.6081 5.23174 42.6012C4.96736 42.6064 4.7047 42.5597 4.4601 42.4639C4.23945 42.376 4.04121 42.244 3.87879 42.0767C3.71303 41.9032 3.58535 41.6999 3.50326 41.4787C3.41336 41.2321 3.36898 40.9725 3.37208 40.7115C3.36843 40.4488 3.41641 40.1878 3.51355 39.9419C3.6034 39.7193 3.73894 39.516 3.91223 39.3439C4.08787 39.1751 4.29797 39.0425 4.52954 38.9542C4.78288 38.8606 5.05265 38.814 5.32433 38.8169C5.5767 38.8111 5.82773 38.8536 6.06254 38.9419C6.26625 39.0262 6.4533 39.143 6.61555 39.2875L6.44321 39.5179C6.43131 39.5341 6.41651 39.5482 6.39949 39.5596C6.37915 39.5728 6.35458 39.5789 6.33004 39.5767C6.30334 39.575 6.27761 39.5665 6.25545 39.5522L6.16285 39.4909L6.03424 39.4125C5.97873 39.3834 5.92114 39.358 5.86191 39.3365C5.78562 39.3105 5.70738 39.29 5.62785 39.2753C5.52691 39.2575 5.42439 39.2493 5.32176 39.2508C5.12612 39.2484 4.93197 39.2834 4.75075 39.3537C4.58174 39.4188 4.42918 39.5174 4.3032 39.6429C4.17494 39.7764 4.0761 39.9331 4.01254 40.1037C3.9401 40.2988 3.9044 40.5046 3.90709 40.7115C3.904 40.9217 3.93969 41.1307 4.01254 41.3291C4.07531 41.4983 4.17231 41.654 4.29805 41.7875C4.41586 41.9119 4.56188 42.0092 4.72503 42.0718C4.89292 42.1381 5.07314 42.1715 5.25489 42.1698C5.35987 42.1714 5.46481 42.1648 5.56869 42.1502C5.7383 42.1305 5.901 42.0743 6.04453 41.986C6.11653 41.9407 6.18449 41.8899 6.24773 41.834C6.27417 41.81 6.30895 41.7961 6.34547 41.7948Z" fill="#AFB1B8"/>
<path d="M12.2871 40.7108C12.2903 40.9709 12.2432 41.2292 12.1482 41.473C12.0644 41.6941 11.9323 41.8958 11.7608 42.0648C11.5892 42.2338 11.382 42.3662 11.1528 42.4533C10.6492 42.6363 10.0925 42.6363 9.58896 42.4533C9.36125 42.3648 9.15539 42.2321 8.98452 42.0636C8.81305 41.8916 8.68004 41.6882 8.59356 41.4657C8.40827 40.972 8.40827 40.4325 8.59356 39.9388C8.6813 39.7162 8.81414 39.5122 8.98452 39.3384C9.15685 39.1752 9.3626 39.0476 9.58896 38.9635C10.0919 38.7772 10.6499 38.7772 11.1528 38.9635C11.3813 39.0519 11.588 39.1846 11.7598 39.3531C11.9292 39.5235 12.0612 39.7243 12.1482 39.9437C12.2435 40.1892 12.2906 40.4492 12.2871 40.7108ZM11.747 40.7108C11.751 40.5028 11.718 40.2956 11.6492 40.0981C11.5916 39.929 11.4979 39.7729 11.374 39.6399C11.2534 39.5139 11.1049 39.4152 10.9393 39.3507C10.5734 39.2167 10.1684 39.2167 9.80245 39.3507C9.63684 39.4152 9.48836 39.5139 9.36776 39.6399C9.24215 39.7722 9.14747 39.9284 9.08997 40.0981C8.9591 40.4971 8.9591 40.9246 9.08997 41.3235C9.14803 41.4931 9.24265 41.6492 9.36776 41.7818C9.48851 41.907 9.637 42.0049 9.80245 42.0685C10.169 42.1991 10.5728 42.1991 10.9393 42.0685C11.1048 42.0049 11.2533 41.907 11.374 41.7818C11.4974 41.6484 11.591 41.4925 11.6492 41.3235C11.7183 41.1261 11.7513 40.9189 11.747 40.7108Z" fill="#AFB1B8"/>
<path d="M16.3408 41.3535L16.3948 41.4907C16.4154 41.4417 16.4334 41.3976 16.454 41.3535C16.4736 41.3074 16.4959 41.2624 16.5209 41.2187L17.8352 38.9422C17.861 38.903 17.8841 38.8785 17.9098 38.8712C17.9448 38.861 17.9814 38.8569 18.0179 38.8589H18.4062V42.5615H17.9458V39.8391C17.9458 39.8048 17.9458 39.7656 17.9458 39.7239C17.9434 39.6815 17.9434 39.6389 17.9458 39.5965L16.6238 41.9048C16.607 41.9394 16.5801 41.9686 16.5464 41.989C16.5126 42.0095 16.4734 42.0202 16.4334 42.02H16.3588C16.3188 42.0205 16.2794 42.0099 16.2456 41.9894C16.2118 41.969 16.185 41.9396 16.1685 41.9048L14.8078 39.5818C14.8078 39.6259 14.8078 39.67 14.8078 39.7141C14.8078 39.7582 14.8078 39.7974 14.8078 39.8317V42.5542H14.3629V38.8589H14.7512C14.7877 38.8569 14.8243 38.861 14.8593 38.8712C14.8912 38.8862 14.9166 38.9113 14.9313 38.9422L16.274 41.2211C16.3003 41.2633 16.3227 41.3075 16.3408 41.3535Z" fill="#AFB1B8"/>
<path d="M21.2871 41.1695V42.5564H20.7726V38.8588H21.9198C22.1364 38.8548 22.3523 38.8821 22.5603 38.9396C22.7268 38.9846 22.8812 39.0631 23.013 39.17C23.1272 39.2701 23.2153 39.3943 23.2702 39.5326C23.3309 39.6835 23.3606 39.844 23.3576 40.0056C23.3599 40.1677 23.3275 40.3286 23.2625 40.4785C23.2006 40.6203 23.1056 40.7469 22.9847 40.8485C22.8527 40.9598 22.6976 41.0433 22.5294 41.0935C22.3292 41.1545 22.1197 41.1835 21.9095 41.1793L21.2871 41.1695ZM21.2871 40.7725H21.9095C22.0447 40.7742 22.1793 40.7552 22.3082 40.7162C22.4145 40.6821 22.5125 40.6279 22.5963 40.5569C22.6736 40.4891 22.7334 40.4052 22.7712 40.3118C22.8133 40.2131 22.8343 40.1073 22.8329 40.0006C22.8389 39.8979 22.8213 39.7951 22.7813 39.6994C22.7413 39.6038 22.68 39.5176 22.6014 39.4469C22.4049 39.3007 22.1581 39.2299 21.9095 39.2484H21.2871V40.7725Z" fill="#AFB1B8"/>
<path d="M28.201 42.5614H27.7946C27.7538 42.5629 27.7138 42.5508 27.6814 42.5271C27.6522 42.504 27.6293 42.4746 27.6145 42.4413L27.2647 41.5468H25.508L25.1453 42.4413C25.132 42.474 25.1098 42.5028 25.081 42.5246C25.0483 42.5497 25.0072 42.5628 24.9652 42.5614H24.5588L26.1021 38.8584H26.6371L28.201 42.5614ZM25.6546 41.1866H27.1053L26.4931 39.6794C26.4463 39.566 26.4076 39.4497 26.3773 39.3314L26.3182 39.525C26.3002 39.5838 26.2796 39.6377 26.2616 39.6818L25.6546 41.1866Z" fill="#AFB1B8"/>
<path d="M30.4233 38.8756C30.4541 38.8917 30.4805 38.9143 30.5005 38.9418L32.7511 41.7331C32.7511 41.689 32.7511 41.6449 32.7511 41.6032C32.7511 41.5616 32.7511 41.5199 32.7511 41.4807V38.8585H33.2115V42.5614H32.9543C32.9178 42.5625 32.8816 42.5549 32.8489 42.5394C32.8171 42.5217 32.7892 42.4984 32.7666 42.4708L30.5185 39.6819C30.521 39.7243 30.521 39.7669 30.5185 39.8093C30.5185 39.851 30.5185 39.8878 30.5185 39.9221V42.5614H30.0581V38.8585H30.3308C30.3626 38.8576 30.3942 38.8635 30.4233 38.8756Z" fill="#AFB1B8"/>
<path d="M37.0029 41.0887V42.5591H36.4884V41.0887L35.066 38.8586H35.5265C35.5661 38.8564 35.6053 38.8677 35.6371 38.8905C35.6651 38.9142 35.6886 38.9424 35.7065 38.9738L36.5965 40.4123C36.6325 40.4736 36.6634 40.5299 36.6891 40.5839C36.7148 40.6378 36.7354 40.6892 36.7534 40.7407L36.8203 40.5814C36.8452 40.5232 36.8744 40.4667 36.9077 40.4123L37.7848 38.964C37.8033 38.9351 37.8258 38.9087 37.8517 38.8856C37.8822 38.8602 37.9218 38.847 37.9623 38.8488H38.4279L37.0029 41.0887Z" fill="#AFB1B8"/>
<path d="M16.0862 32.6443C16.31 32.6712 16.5363 32.6933 16.7652 32.7129C20.2358 31.2337 23.1718 28.8127 25.2062 25.7526C27.2406 22.6924 28.2832 19.1289 28.2036 15.5073L24.3788 11.8633C25.1565 15.7191 24.7927 19.705 23.3282 23.3751C21.8636 27.0452 19.3561 30.2546 16.0862 32.6443Z" fill="#AFB1B8"/>
<path d="M14.7204 32.4748L14.8233 32.4944C18.3175 30.1132 20.9816 26.788 22.4709 22.9488C23.9603 19.1097 24.2065 14.9331 23.1776 10.9592L17.7298 5.76904C19.9333 10.0353 20.8202 14.8098 20.2875 19.5374C19.7547 24.265 17.8242 28.7514 14.7204 32.4748Z" fill="#AFB1B8"/>
<path d="M33.1961 19.7861C32.2706 23.7654 30.0227 27.3541 26.7863 30.0196C25.8411 30.8023 24.8216 31.4996 23.7409 32.1025C26.3763 31.3646 28.7985 30.0598 30.8209 28.289C32.8433 26.5181 34.4119 24.3284 35.4056 21.8887L33.1961 19.7861Z" fill="#AFB1B8"/>
<path d="M32.3293 19.2002L29.1835 16.2031C29.1234 19.6201 28.1038 22.9594 26.2307 25.8739C24.3576 28.7885 21.6994 31.1718 18.5323 32.7764H18.5477C19.2535 32.7761 19.9586 32.736 20.6595 32.6563C23.6193 31.5053 26.2339 29.6742 28.2702 27.3262C30.3065 24.9782 31.701 22.1865 32.3293 19.2002Z" fill="#AFB1B8"/>
<path d="M15.1757 3.5803L11.4229 0C8.06808 1.23513 5.18278 3.40643 3.14464 6.22973C1.1065 9.05304 0.0104686 12.3968 0 15.8234H0C0.0125737 19.6097 1.3502 23.2838 3.80116 26.2643C6.25213 29.2448 9.67642 31.3614 13.5321 32.2791C16.974 28.2838 18.9892 23.347 19.2847 18.186C19.5803 13.025 18.1409 7.90862 15.1757 3.5803Z" fill="#AFB1B8"/>
<path d="M41 18.6492C40.9864 14.157 39.1073 9.85247 35.7732 6.67598C32.4391 3.49949 27.921 1.70923 23.2059 1.6963C21.0271 1.69415 18.8668 2.0772 16.8347 2.826L39.8117 24.7168C40.5984 22.7817 41.0014 20.7244 41 18.6492Z" fill="#AFB1B8"/>
</svg>
