<svg width="70" height="54" viewBox="0 0 70 54" fill="none" xmlns="http://www.w3.org/2000/svg">
<path d="M3.49817 53.8866H59.4689C61.4007 53.8866 62.967 52.3203 62.967 50.3884V45.7242C62.967 43.7923 61.4007 42.226 59.4689 42.226H58.3028V13.1469L64.9262 6.87253C66.4635 7.63035 68.3242 7.17031 69.3302 5.78163C70.3369 4.39352 70.1957 2.48217 68.9966 1.2569C67.7975 0.0316271 65.8901 -0.151139 64.4798 0.824181C63.0701 1.80007 62.569 3.64993 63.2933 5.20372L58.3028 9.93456V7.24432C58.3028 5.31247 56.7365 3.74615 54.8046 3.74615H8.16239C6.23054 3.74615 4.66422 5.31247 4.66422 7.24432V42.226H3.49817C1.56632 42.226 0 43.7923 0 45.7242V50.3884C0 52.3203 1.56632 53.8866 3.49817 53.8866ZM66.4652 2.5801C67.1091 2.5801 67.6312 3.1022 67.6312 3.74615C67.6312 4.3901 67.1091 4.91221 66.4652 4.91221C65.8212 4.91221 65.2991 4.3901 65.2991 3.74615C65.2991 3.1022 65.8212 2.5801 66.4652 2.5801ZM6.99634 7.24432C6.99634 6.60037 7.51844 6.07827 8.16239 6.07827H54.8046C55.4486 6.07827 55.9707 6.60037 55.9707 7.24432V12.1414L53.6386 14.3574V9.57644C53.6386 8.93248 53.1165 8.41038 52.4725 8.41038H10.4945C9.85055 8.41038 9.32845 8.93248 9.32845 9.57644V38.7278C9.32845 39.3718 9.85055 39.8939 10.4945 39.8939H52.4725C53.1165 39.8939 53.6386 39.3718 53.6386 38.7278V17.5652L55.9707 15.3555V42.226H6.99634V7.24432ZM17.4908 22.4031C15.9131 22.3985 14.5279 23.4495 14.1083 24.9703C13.6886 26.4911 14.3383 28.1041 15.6951 28.9092C17.0513 29.7143 18.7793 29.5121 19.9129 28.415L23.9662 30.4487C24.4371 30.6844 25.0081 30.574 25.3583 30.1806L33.9745 20.4871L42.4443 26.8338C42.8987 27.1743 43.5329 27.1379 43.9452 26.7479L51.3065 19.7749V37.5618H11.6606V10.7425H51.3065V16.562L43.0564 24.3748L34.5154 17.9717C34.0303 17.6084 33.3476 17.6768 32.9445 18.1294L24.2099 27.9572L20.9446 26.3243C20.9685 26.1842 20.9833 26.043 20.989 25.9012C20.989 23.9694 19.4227 22.4031 17.4908 22.4031ZM18.6569 25.9012C18.6569 26.5452 18.1348 27.0673 17.4908 27.0673C16.8469 27.0673 16.3248 26.5452 16.3248 25.9012C16.3248 25.2573 16.8469 24.7352 17.4908 24.7352C18.1348 24.7352 18.6569 25.2573 18.6569 25.9012ZM25.6532 44.5581H37.3138V45.7242C37.3138 46.3681 36.7917 46.8902 36.1477 46.8902H26.8193C26.1753 46.8902 25.6532 46.3681 25.6532 45.7242V44.5581ZM2.33211 45.7242C2.33211 45.0802 2.85422 44.5581 3.49817 44.5581H23.3211V45.7242C23.3211 47.656 24.8874 49.2223 26.8193 49.2223H36.1477C38.0796 49.2223 39.6459 47.656 39.6459 45.7242V44.5581H59.4689C60.1128 44.5581 60.6349 45.0802 60.6349 45.7242V50.3884C60.6349 51.0324 60.1128 51.5545 59.4689 51.5545H3.49817C2.85422 51.5545 2.33211 51.0324 2.33211 50.3884V45.7242Z" fill="#212121"/>
</svg>
