<svg width="66" height="70" viewBox="0 0 66 70" fill="none" xmlns="http://www.w3.org/2000/svg">
<path d="M65.3162 48.3385L46.8467 29.7337L48.8966 19.6373C49.4255 19.8438 49.9878 19.9517 50.5556 19.9558H50.5696C53.1776 19.9866 55.3169 17.8974 55.3478 15.2893C55.3787 12.6812 53.2894 10.542 50.6813 10.5111C48.0732 10.4803 45.934 12.5695 45.903 15.1776C45.8965 15.7357 45.9888 16.2905 46.1759 16.8163L35.3259 18.1405L17.6276 0.35C17.4104 0.128479 17.1141 0.00247917 16.8039 0C16.4976 0.00160417 16.2044 0.123521 15.9872 0.3395L12.6786 3.6295C12.2231 4.08508 12.2231 4.82358 12.6786 5.27917L14.4589 7.08517C7.56156 19.7681 9.80185 35.4741 19.9702 45.7228C20.0636 45.8121 20.1718 45.8843 20.2899 45.9363C20.2164 46.3311 20.178 46.7317 20.1756 47.1333V60.6667H6.17556C2.95556 60.6705 0.346016 63.28 0.342224 66.5V68.8333C0.342224 69.4776 0.864599 70 1.50889 70H55.1756C55.8199 70 56.3422 69.4776 56.3422 68.8333V66.5C56.3384 63.28 53.7289 60.6705 50.5089 60.6667H36.5089V54.6688C38.7021 55.1288 40.9367 55.3633 43.1776 55.3688C48.5547 55.363 53.8463 54.0225 58.5776 51.4675L60.3672 53.2677C60.5844 53.4892 60.8807 53.6152 61.1909 53.6177C61.4971 53.6161 61.7904 53.4941 62.0076 53.2782L65.3162 49.9882C65.7717 49.5326 65.7717 48.7941 65.3162 48.3385ZM48.9246 13.6348C49.8382 12.726 51.3156 12.7301 52.2243 13.6437C53.1332 14.5574 53.1291 16.0348 52.2154 16.9435C51.7781 17.3785 51.1863 17.6226 50.5694 17.6225H50.5624C49.2738 17.6158 48.2345 16.5658 48.2412 15.2771C48.2444 14.6602 48.4917 14.0699 48.9291 13.6348H48.9246ZM46.1782 21.301L44.8692 27.7445L42.2979 25.158L46.1782 21.301ZM44.8529 19.3282L40.6529 23.5037L37.4037 20.237L44.8529 19.3282ZM50.5089 63C52.4419 63 54.0089 64.567 54.0089 66.5V67.6667H2.67556V66.5C2.67556 64.567 4.24254 63 6.17556 63H50.5089ZM34.1756 58.3333V60.6667H22.5089V58.3333H34.1756ZM22.5089 56V47.1333C22.5089 44.303 25.1257 42 28.3422 42C31.5587 42 34.1756 44.303 34.1756 47.1333V56H22.5089ZM36.5089 52.29V47.1333C36.5089 43.0162 32.8456 39.6667 28.3422 39.6667C25.4305 39.622 22.7078 41.1041 21.1649 43.5738C12.2886 34.2249 10.2898 20.2875 16.1805 8.82073L56.8719 49.7455C50.5885 52.9419 43.3857 53.8418 36.5089 52.29ZM61.2037 50.7943L59.5599 49.1412L16.7922 6.11567L15.1414 4.46133L16.7922 2.81633L34.1499 20.272C34.1581 20.272 34.1627 20.2872 34.1709 20.293L62.8592 49.1493L61.2037 50.7943Z" fill="#212121"/>
</svg>
