<svg width="18" height="18" viewBox="0 0 18 18" fill="none" xmlns="http://www.w3.org/2000/svg">
<path d="M13.996 11.1227L12.1579 10.9128C11.7164 10.8622 11.2822 11.0141 10.9711 11.3253L9.63948 12.6569C7.59147 11.6148 5.91254 9.94308 4.87044 7.88782L6.20925 6.54901C6.52043 6.23782 6.6724 5.80361 6.62174 5.36217L6.41188 3.53849C6.32504 2.80757 5.70991 2.25757 4.97176 2.25757H3.71979C2.90203 2.25757 2.22178 2.93783 2.27243 3.75559C2.65598 9.93584 7.59871 14.8714 13.7717 15.2549C14.5894 15.3056 15.2697 14.6253 15.2697 13.8075V12.5556C15.2769 11.8247 14.7269 11.2095 13.996 11.1227Z" fill="#212121"/>
</svg>
