<svg width="800" height="600" xmlns="http://www.w3.org/2000/svg">
 <g>
  <title>Layer 1</title>
  <path transform="rotate(18 270.099 195.539)" stroke-dasharray="2,2" stroke-width="16" d="m157.8,80.37512c3,0 6.96881,0.49957 19,1c5.99481,0.24936 15.01572,-0.22581 31,1c11.01303,0.84457 24.93796,1.49829 31,2c3.98637,0.32993 10,0 14,0c11.99998,0 20.03404,0.31024 26.99998,1c5.07422,0.50244 8.00681,1.16496 10,1c6.06204,-0.50171 10.96881,-1.49957 23,-2c6.99396,-0.29091 13.01022,-0.75256 16,-1c6.06204,-0.50171 9.93796,-1.49829 16,-2c11.95911,-0.98976 17.95468,1.19089 26,3c4.97479,1.11867 12,2 16,2c5,0 8.69345,-0.4588 10,-1c0.92389,-0.38269 1,1 1,4c0,4 0,13 0,29c0,24 -0.28546,39.0034 0,51c0.50015,21.01785 2.89706,37.07838 1,60.00002c-1.00342,12.12408 -4.99512,27.85159 -6,38c-0.7883,7.96106 -2.55481,18.03867 -2,22c1.00977,7.20975 2.60095,11.83212 4,18c1.78345,7.86252 2,11 2,14c0,1 0.30655,0.5412 -1,0c-1.84775,-0.76538 -3.03873,0.48056 -6,0c-9.36432,-1.51962 -20.98108,-7.16507 -29,-8c-11.97684,-1.24704 -25.95337,-3.35928 -40,-5c-21.94156,-2.5629 -38,-2 -52,-2c-12.99998,0 -19.09685,-0.39975 -23.99998,1c-8.21577,2.34543 -15.72232,6.88342 -24,9c-6.85066,1.75171 -16.07278,1.1181 -21,-2c-3.04672,-1.92807 -8.48625,-5.82376 -9,-8c-0.91901,-3.89301 -0.66232,-8.06613 -2,-14c-1.60098,-7.1019 -4.65315,-15.88403 -7,-31c-1.38927,-8.94818 -4.76512,-28.07462 -9,-41c-7.58197,-23.14119 -12.9147,-33.55147 -16,-41.00002c-4.36327,-10.53384 -4.84062,-18.03276 -8,-33c-1.90416,-9.02077 -3.67319,-16.03809 -5,-26c-0.80305,-6.02953 -2.49829,-12.93796 -3,-19c-0.57736,-6.97615 1.05446,-12.09023 2,-17c1.01837,-5.28799 0.19577,-8.64886 4,-11c0.85065,-0.52573 2,-1 3,-1c1,0 1.76935,-1.30322 3,-2c3.58792,-2.03145 5,-1 6,-1c1,0 2,0 2,0c1,0 3.4588,0.69344 4,2c0.76537,1.84776 2.48625,1.82375 3,4c0.22975,0.97325 1,2 1,2c0,1 0,2 0,3l0,1l0,1" id="svg_1" stroke="#000" fill="none"/>
  <path fill="none" stroke="#000" id="svg_2" d="m456.79999,334.20001c0,-1 0.2565,-2.797 1,-4c1.66251,-2.69 1,-4 2,-6c2,-4 6.46448,-9.46448 10,-13c3.53552,-3.53552 6.29291,-7.29291 7,-8c2.12131,-2.12131 5.08026,-0.31073 8,-1c2.17624,-0.51373 4.87857,-1.49347 8,-2c4.93542,-0.8009 17.51904,2.99411 25,6c7.65161,3.07446 19.70251,9.56351 25,12c5.74591,2.64276 9.74677,5.37134 14,8c3.8042,2.35114 7.34619,4.70547 9,7c1.30743,1.814 1.9176,1.38687 3,4c0.76538,1.84775 0,5 0,10c0,8 -1.36096,15.14221 -3,21c-1.45105,5.18597 -5.724,11.22272 -9,15c-1.85321,2.13675 -7.55817,5.51929 -11,8c-5.44196,3.92236 -14.04132,4.84723 -18,6c-3.03619,0.88412 -11,2 -19,2c-9,0 -13.97699,1.79443 -22,1c-3.14688,-0.31161 -6.96872,-1.11716 -18,-4c-3.98914,-1.04248 -9.29871,-3.94855 -11,-5c-1.9021,-1.17557 -3.1731,-3.85272 -4,-5c-1.30746,-1.814 -1.95517,-2.54916 -3,-6c-0.28979,-0.95709 -1,-4 -1,-5c0,-2 0,-5 0,-8c0,-4 0.78986,-12.07843 2,-15c0.85571,-2.06586 1,-3 1,-4c0,-1 1,-2 1,-3c0,-1 0,-2 0,-4c0,-1 0,-2 0,-3c0,-2 0.29291,-2.29291 1,-3c0.70709,-0.70709 1,-3 2,-4l0,0l0,-1l0,-1"/>
  <path fill="none" stroke="#000" id="svg_3" d="m501.79999,319.20001c2,0 2.92578,0.49756 8,1c5.97083,0.59122 19.07129,2.81631 27,6c7.06732,2.8378 7.82373,4.48627 10,5c0.97327,0.22977 2.41888,2.41885 4,4c1.58112,1.58115 1.61731,2.07611 2,3c0.5412,1.30655 2,2 2,4c0,2 0.32037,5.02582 0,7c-0.50653,3.12143 -1.38507,6.37201 -4,10c-1.65381,2.29453 -6.18604,4.69254 -8,6c-2.29456,1.65381 -3.76111,2.41589 -7,4c-2.8407,1.38934 -8.92035,4.16797 -13,6c-4.91254,2.20605 -10.93796,4.49829 -17,5c-1.99319,0.16495 -4.87857,0.49347 -8,1c-0.98709,0.16019 -4.69345,-1.4588 -6,-2c-3.69553,-1.53073 -8.89246,-4.11365 -11,-6c-4.77115,-4.27039 -6,-4 -6,-5c0,-1 0,-1 0,-2c0,-1 0,-3 0,-5c0,-2 0,-6 0,-9c0,-5 0.31073,-8.08026 1,-11c0.51373,-2.17624 1.5405,-4.0535 2,-6c0.51373,-2.17624 2.4588,-2.69345 3,-4c0.76538,-1.84775 1.4505,-3.4505 4,-6c2.5495,-2.5495 3.69254,-7.186 5,-9c0.8269,-1.14728 2,-1 3,-1c0,0 1,-1 4,-1c1,0 4,0 5,0c3,0 3.29291,-0.70709 4,0c0.70709,0.70709 1.58578,-0.41422 3,1c0.70709,0.70709 0.29291,0.29291 1,1c0.70709,0.70709 0,2 1,2l1,1l0,0"/>
  <path fill="none" stroke="#000" id="svg_4" d="m505.79999,341.20001c2,0 2.41528,-0.18875 3,-1c1.84903,-2.56537 4.87854,-1.49347 8,-2c4.93542,-0.8009 11.08264,-0.30554 19,2c3.03619,0.88412 7.32367,5.52017 9,7c5.40601,4.77234 4.4588,7.69345 5,9c0.38269,0.92389 0,3 0,3c0,1 -1.48627,0.82376 -2,3c-0.22974,0.97324 -4.93414,3.14429 -7,4c-2.92157,1.21014 -10.02521,3.88135 -15,5c-8.04529,1.80911 -13,3 -16,3c-3,0 -5,-1 -5,-1c-2,0 -2.29291,-0.29291 -3,-1c-0.70709,-0.70709 -1.07611,-0.61731 -2,-1c-1.30655,-0.5412 -2,-2 -2,-3c0,-1 0.48627,-2.82376 1,-5c0.22977,-0.97324 0.5405,-3.0535 1,-5c0.51373,-2.17624 1.23462,-4.15225 2,-6c0.5412,-1.30655 1.61731,-3.07611 2,-4c0.5412,-1.30655 1,-1 1,-1c1,-1 0.29291,-2.29291 1,-3c0.70709,-0.70709 1,-1 2,-1c0,0 1,-2 1,-2l1,0l0,-2l0,0"/>
  <path d="m561.79999,66.2c0,1 0,5 0,9c0,9 0,14 0,18c0,6 -0.30878,9.0718 1,14c0.81165,3.05634 1.51129,8.02997 2,12c0.50378,4.09222 0.57465,12.01509 1,18c0.50128,7.05328 0,10 0,14c0,5 -1,8 -1,12c0,1 0,2 0,4c0,1 0,4 0,6c0,2 0,6 0,8c0,2 -4.03583,2.65469 -10,2c-9.16449,-1.00601 -23.55804,-5.07764 -29,-9c-3.44183,-2.48071 -8.69122,-8.07179 -10,-13c-2.43494,-9.16902 -3,-14 -3,-21c0,-3 -0.66254,-5.31001 1,-8c0.74347,-1.203 3.87854,-4.49346 7,-5c0.98706,-0.16018 14.78442,-2.1114 28,4c9.81769,4.5401 14.23273,7.73325 20,13c3.13287,2.86098 7.84692,4.98836 14,11c3.57642,3.49419 7.3443,8.72383 15,15c2.78833,2.28587 7.87854,6.49345 11,7c3.94836,0.64073 5.08746,0.20607 10,-2c8.1593,-3.66408 12.44043,-7.58977 18,-14c3.276,-3.77727 4.67261,-9.70848 7,-16c1.43048,-3.867 -0.38074,-8.52222 -3,-11c-3.63226,-3.43608 -7.95074,-10.08372 -13,-13c-8.91547,-5.14925 -12.53973,-7.46873 -20,-9c-0.97955,-0.20107 -7,-1 -20,-1c-8,0 -21.34344,1.76314 -27,4c-3.35291,1.3259 -8.87854,3.49346 -12,4c-4.93542,0.80091 -11.21704,1.72961 -18,0c-12.14148,-3.096 -15.07861,-9.93813 -19,-15c-3.0621,-3.95265 -3,-8 -3,-13c0,-4 0.16797,-10.92034 2,-15c2.20605,-4.91256 5.35577,-13.40978 10,-20c5.31091,-7.5362 10.0968,-13.10744 16,-17c4.49573,-2.96449 9.96259,-3.49938 20,-4c9.98761,-0.49814 20.53094,0.03555 35,5c8.46014,2.90274 18.10651,10.89623 22,15c9.25977,9.75994 12.85431,15.57591 17,25c2.54669,5.78917 3.99512,10.85159 5,21c0.39417,3.98053 -0.22131,14.31856 -3,20c-4.75232,9.71677 -17.09686,22.91626 -24,31c-5.0719,5.93933 -15.14874,18.90218 -23,31c-12.23358,18.85043 -19.69177,27.57184 -30,45c-7.5166,12.70831 -12.97119,27.62395 -23,43.00002c-5.46301,8.37589 -11,14 -12,16l0,1l0,1" id="svg_5" stroke="#000" fill="none"/>
 </g>

</svg>